PathFileType	4	(X/Y/Z)	/Users/itak/Documents/Research/Walk-IL/dataset/trc/00509_00183.trc
DataRate	CameraRate	NumFrames	NumMarkers	Units	OrigDataRate	OrigDataStartFrame	OrigNumFrames
100.000000	100.000000	4	53	mm	100.000000	274	366
Frame#	Time	RPSI			LPSI			L3			STRN			T10			C7			CLAV			RBAK			LBAK			LSHO			LUPA			LAEL			LAOL			LWTS			LWPS			LFRA			LIFD			LHPS			LHTS			RSHO			RUPA			RAEL			RAOL			RWTS			RWPS			RFRA			RIFD			RHTS			RHPS			RBHD			LFHD			RFHD			LBHD			LHIP			RHIP			RASI			LASI			LKNE			LTHI			LANK			LTIP			LTOE			LMT1			LMT5			LHEE			RKNE			RTHI			RANK			RTIP			RTOE			RMT1			RMT5			RHEE			
		X1	Y1	Z1	X2	Y2	Z2	X3	Y3	Z3	X4	Y4	Z4	X5	Y5	Z5	X6	Y6	Z6	X7	Y7	Z7	X8	Y8	Z8	X9	Y9	Z9	X10	Y10	Z10	X11	Y11	Z11	X12	Y12	Z12	X13	Y13	Z13	X14	Y14	Z14	X15	Y15	Z15	X16	Y16	Z16	X17	Y17	Z17	X18	Y18	Z18	X19	Y19	Z19	X20	Y20	Z20	X21	Y21	Z21	X22	Y22	Z22	X23	Y23	Z23	X24	Y24	Z24	X25	Y25	Z25	X26	Y26	Z26	X27	Y27	Z27	X28	Y28	Z28	X29	Y29	Z29	X30	Y30	Z30	X31	Y31	Z31	X32	Y32	Z32	X33	Y33	Z33	X34	Y34	Z34	X35	Y35	Z35	X36	Y36	Z36	X37	Y37	Z37	X38	Y38	Z38	X39	Y39	Z39	X40	Y40	Z40	X41	Y41	Z41	X42	Y42	Z42	X43	Y43	Z43	X44	Y44	Z44	X45	Y45	Z45	X46	Y46	Z46	X47	Y47	Z47	X48	Y48	Z48	X49	Y49	Z49	X50	Y50	Z50	X51	Y51	Z51	X52	Y52	Z52	X53	Y53	Z53	

275	2.74	962.7925415039062	859.2188720703125	802.3910522460938	1042.855590820312	868.9864501953125	707.8486328125	999.2069091796875	954.2991943359375	756.23779296875	1175.858764648438	1131.313842773438	880.3662719726562	981.8610229492188	1061.766723632812	755.8223876953125	1006.934509277344	1295.097534179688	786.7119750976562	1139.722900390625	1223.160034179688	861.9811401367188	925.853759765625	1167.44580078125	832.5057983398438	1032.514892578125	1241.650390625	699.2781982421875	1149.573608398438	1290.2783203125	681.9794311523438	1156.955932617188	1172.491577148438	611.9857788085938	1145.290649414062	985.1640014648438	562.4072265625	1051.258911132812	964.8822631835938	590.9580078125	1280.089233398438	878.0798950195312	658.1322021484375	1244.785522460938	801.943603515625	617.0872192382812	1186.2470703125	930.6629638671875	577.8512573242188	1366.822387695312	761.1309814453125	692.6568603515625	1293.249633789062	776.3601684570312	625.1590576171875	1333.98486328125	823.2716674804688	646.473388671875	975.7451782226562	1285.313720703125	944.38037109375	935.7252197265625	1212.615966796875	980.2373046875	934.4469604492188	975.119140625	1009.136291503906	925.6893920898438	919.073486328125	971.7783813476562	1138.713500976562	1039.18212890625	1013.659301757812	1148.936401367188	962.5924072265625	1061.808837890625	981.7120971679688	955.19921875	1028.026977539062	1295.328247070312	1033.539184570312	1028.688720703125	1227.863403320312	1049.965087890625	1050.436279296875	1224.2734375	981.5732421875	1071.9873046875	962.1693725585938	1423.67626953125	859.8216552734375	1113.861938476562	1535.535766601562	793.173095703125	1043.85302734375	1529.105834960938	899.2578125	1041.436279296875	1421.991333007812	722.2083740234375	1222.156127929688	827.5881958007812	686.2256469726562	979.5615234375	783.95947265625	977.0947875976562	1085.756958007812	854.4542846679688	983.850830078125	1237.6865234375	877.7022705078125	794.1524658203125	1351.451904296875	466.6483154296875	877.1155395507812	1317.300170898438	602.9102783203125	799.5802612304688	1273.084350585938	36.56621170043945	852.8008422851562	1341.254150390625	312.2569885253906	877.0711059570312	1401.525146484375	23.7078971862793	1020.912841796875	1315.3427734375	30.54066276550293	998.7666625976562	1366.200805664062	31.13418388366699	910.3797607421875	1198.4296875	24.8219108581543	872.9695434570312	1135.647216796875	451.7700805664062	1075.284423828125	1035.645385742188	676.9127807617188	1025.257690429688	870.0986938476562	221.4695281982422	865.4631958007812	1085.71142578125	352.2189331054688	1035.128784179688	975.5267333984375	75.01668548583984	951.334716796875	976.1769409179688	109.3585357666016	885.010986328125	900.0079956054688	141.5456237792969	937.669921875	874.6752319335938	242.9150085449219	797.8593139648438	
276	2.75	972.6033935546875	853.8192749023438	809.7288818359375	1051.782470703125	865.47021484375	714.4788208007812	1008.688293457031	950.7911987304688	762.1309204101562	1185.787353515625	1126.742065429688	888.9366455078125	992.4215698242188	1058.64794921875	761.3451538085938	1019.946105957031	1291.838989257812	792.669189453125	1150.3720703125	1218.587036132812	870.3759765625	936.4837036132812	1164.676391601562	837.451171875	1046.000244140625	1238.162841796875	705.7496948242188	1163.939697265625	1286.083984375	690.661376953125	1176.771606445312	1166.41064453125	622.2225952148438	1174.573852539062	976.6294555664062	574.29296875	1079.234497070312	955.5258178710938	597.3076171875	1304.085693359375	872.8553466796875	678.1240844726562	1273.516723632812	796.7725830078125	633.6334228515625	1215.257080078125	923.3504638671875	592.717041015625	1389.647094726562	756.8668212890625	718.603515625	1321.667114257812	771.8794555664062	645.4521484375	1359.64013671875	818.9133911132812	670.335205078125	985.6514282226562	1281.38427734375	950.653076171875	944.3525390625	1208.565307617188	984.971435546875	939.7047119140625	970.6305541992188	1009.795959472656	930.6871948242188	915.435546875	971.8134765625	1144.89599609375	1030.289306640625	1020.760314941406	1152.338623046875	952.68017578125	1067.626953125	986.0545043945312	949.7622680664062	1029.756103515625	1300.552490234375	1020.935241699219	1039.743774414062	1233.120849609375	1038.451904296875	1060.071044921875	1227.45947265625	969.801025390625	1080.1005859375	974.2709350585938	1419.276611328125	866.8579711914062	1125.463500976562	1532.071411132812	800.533935546875	1055.0322265625	1525.519775390625	906.34765625	1054.239990234375	1417.681640625	729.6168212890625	1231.41162109375	825.9640502929688	690.7144775390625	992.426025390625	778.4842529296875	984.059814453125	1097.974487304688	850.07275390625	989.4100341796875	1248.058471679688	876.0276489257812	798.39208984375	1362.823486328125	465.4509582519531	884.6867065429688	1328.492553710938	601.5709228515625	805.9666748046875	1273.262084960938	37.52566528320312	853.7454223632812	1348.939819335938	311.1069030761719	883.1550903320312	1402.17431640625	23.54488945007324	1021.567199707031	1315.650390625	30.14950752258301	999.3250122070312	1366.439453125	31.38596725463867	910.9130859375	1198.482543945312	25.60007476806641	873.8023071289062	1157.52490234375	453.8189392089844	1088.31103515625	1050.554077148438	673.811279296875	1033.132202148438	895.7452392578125	214.6275329589844	883.7410888671875	1109.897094726562	352.5326843261719	1050.050903320312	1005.461242675781	72.70478057861328	971.3490600585938	1004.700866699219	105.6775970458984	904.4216918945312	928.1796875	136.8760528564453	957.0997314453125	899.43603515625	234.9502410888672	815.8866577148438	
277	2.76	982.3956909179688	850.1050415039062	816.9085083007812	1060.796875	863.2039184570312	721.0309448242188	1018.177490234375	948.3511352539062	768.0764770507812	1195.512329101562	1123.4990234375	897.3087768554688	1002.726196289062	1056.440795898438	766.87646484375	1032.456787109375	1289.613159179688	798.1446533203125	1160.586669921875	1215.2900390625	878.4252319335938	946.7313842773438	1162.841064453125	842.2132568359375	1058.856201171875	1235.640380859375	711.9866333007812	1177.58251953125	1283.011596679688	699.0997314453125	1195.577880859375	1161.8837890625	632.43994140625	1202.865478515625	970.1520385742188	587.1546020507812	1106.662109375	947.7315063476562	604.7117309570312	1327.207275390625	869.7060546875	698.65234375	1301.827392578125	793.756591796875	650.8492431640625	1243.4169921875	918.099365234375	608.4116821289062	1411.515502929688	754.7556762695312	744.667724609375	1349.49853515625	769.79541015625	666.0875854492188	1384.284912109375	816.8009033203125	694.7822875976562	995.0507202148438	1278.551025390625	956.4368896484375	952.5022583007812	1205.79150390625	989.3656616210938	944.64111328125	967.2484741210938	1010.586059570312	935.0948486328125	913.258056640625	971.9339599609375	1151.098510742188	1020.714416503906	1027.887573242188	1154.804809570312	942.3848266601562	1073.749267578125	989.8016357421875	945.1399536132812	1031.480712890625	1305.338500976562	1005.344421386719	1051.191650390625	1238.364990234375	1025.135864257812	1069.65380859375	1229.689575195312	956.672119140625	1088.54296875	985.8963012695312	1416.181640625	873.5865478515625	1136.928100585938	1529.5625	807.8118286132812	1066.0712890625	1522.865478515625	913.3621826171875	1066.53662109375	1414.775268554688	736.6892700195312	1240.647338867188	825.1871948242188	695.3998413085938	1004.821960449219	774.4266357421875	990.8438110351562	1109.828857421875	846.892578125	994.9712524414062	1258.164184570312	875.1346435546875	802.8704223632812	1372.736572265625	463.9224853515625	891.1773071289062	1338.882080078125	600.4419555664062	811.9765625	1273.379638671875	38.20548248291016	854.5065307617188	1355.511840820312	309.6396179199219	888.1314086914062	1402.67041015625	23.529296875	1021.962036132812	1315.92138671875	29.94553375244141	999.6494140625	1366.634643554688	31.49000358581543	911.228759765625	1198.53125	26.37788200378418	874.4655151367188	1178.542358398438	456.8750915527344	1100.245361328125	1064.8203125	671.8851318359375	1040.563842773438	921.9481201171875	206.3573608398438	902.182861328125	1133.670654296875	353.3183288574219	1064.30224609375	1036.572875976562	70.07792663574219	991.987060546875	1034.224731445312	101.2789459228516	924.2591552734375	957.2252807617188	131.3623504638672	976.9530639648438	924.7124633789062	225.2692413330078	834.02880859375	
278	2.77	992.2693481445312	847.9625244140625	823.8158569335938	1070.030639648438	862.1426391601562	727.4170532226562	1027.837036132812	946.97509765625	773.9932861328125	1205.000854492188	1121.630981445312	905.459228515625	1012.96923828125	1055.153564453125	772.3728637695312	1044.353881835938	1288.432006835938	803.238525390625	1170.388793945312	1213.367919921875	886.1549072265625	956.6901245117188	1161.906372070312	846.72509765625	1071.202758789062	1234.094482421875	717.9754028320312	1190.539794921875	1281.1796875	707.2678833007812	1213.312377929688	1159.01025390625	642.5352783203125	1229.693969726562	965.9495239257812	600.7886352539062	1133.092407226562	941.71240234375	613.2164916992188	1349.278686523438	868.8606567382812	719.400390625	1329.34228515625	793.0617065429688	668.674560546875	1270.302490234375	915.1353149414062	624.6795043945312	1432.239501953125	754.9988403320312	770.6760864257812	1376.431030273438	770.2520141601562	686.9033813476562	1407.68505859375	817.0660400390625	719.5003051757812	1003.924743652344	1276.850219726562	961.7352294921875	960.1869506835938	1204.292236328125	993.38916015625	949.35400390625	964.94384765625	1011.672058105469	939.0750732421875	912.4987182617188	972.1884155273438	1157.250122070312	1010.562316894531	1034.971801757812	1156.347900390625	931.9242553710938	1080.138427734375	993.0819702148438	941.3136596679688	1033.276245117188	1309.491821289062	987.2200927734375	1062.913696289062	1243.444458007812	1010.326232910156	1079.090454101562	1230.908081054688	942.5458374023438	1097.236328125	997.0196533203125	1414.51025390625	879.982177734375	1148.240600585938	1528.100463867188	814.9701538085938	1076.952758789062	1521.26171875	920.2639770507812	1078.30029296875	1413.35498046875	743.4046020507812	1250.004516601562	825.1864013671875	700.2984008789062	1016.696899414062	771.7849731445312	997.396728515625	1121.262084960938	844.9307861328125	1000.586242675781	1268.097778320312	874.8972778320312	807.6607055664062	1380.983032226562	462.0282897949219	896.5925903320312	1348.353393554688	599.4183349609375	817.570556640625	1273.401733398438	38.60261535644531	855.1539306640625	1360.916381835938	307.8494567871094	892.1093139648438	1403.026611328125	23.58012580871582	1022.179809570312	1316.1328125	29.84098243713379	999.8206176757812	1366.76953125	31.49423599243164	911.3998413085938	1198.546997070312	27.0520133972168	875.0081787109375	1198.492553710938	460.7354431152344	1110.959594726562	1078.443115234375	671.1105346679688	1047.574340820312	948.702880859375	196.7901000976562	920.7452392578125	1156.804077148438	354.5481262207031	1077.764282226562	1068.65576171875	67.31053924560547	1013.208557128906	1064.598510742188	96.26080322265625	944.4640502929688	987.030029296875	125.1912307739258	997.1859130859375	950.5479736328125	213.9719085693359	852.2301635742188	
